# xmcd CD database file
# Copyright (C) 1993-1996 Ti Kan
#
# Track frame offsets:
#	150
#	13805
#	22613
#	36263
#	49698
#	63595
#	74880
#	86090
#	97965
#	108918
#	122178
#	138423
#	149335
#	165110
#	180128
#
# Disc length: 2618 seconds
#
# Revision: 1
# Processed by: cddbd v1.4b41PL1 Copyright (c) Steve Scherf et al.
# Submitted via: xmcd 2.0
#
DISCID=c40a380f
DTITLE=Ella Fitzgerald - Basin Street Blues
DYEAR=1900
DGENRE=
TTITLE0=Basin Street Blues
TTITLE1=Love comes back to me
TTITLE2=Starlit Hour
TTITLE3=We can't go on this way
TTITLE4=Stairway to the Stars
TTITLE5=Is There Somebody Else
TTITLE6=A Tisket, A Tasket
TTITLE7=Sing Song Swing
TTITLE8=That Old Black Magic
TTITLE9=Sugar Blues
TTITLE10=It's a Blue World
TTITLE11=Flying Home
TTITLE12=Who Ya Hunchin
TTITLE13=Chewing Gum
TTITLE14=Goin and Gettin it
EXTD=
EXTT0=
EXTT1=
EXTT2=
EXTT3=
EXTT4=
EXTT5=
EXTT6=
EXTT7=
EXTT8=
EXTT9=
EXTT10=
EXTT11=
EXTT12=
EXTT13=
EXTT14=
PLAYORDER=
